<svg width="36" height="36" viewBox="0 0 36 36" fill="none" xmlns="http://www.w3.org/2000/svg">
<rect width="36" height="36" rx="18" fill="#8A1538"/>
<path fill-rule="evenodd" clip-rule="evenodd" d="M10.9167 16.598C10.9167 12.7647 14.12 9.6665 17.9946 9.6665C21.8802 9.6665 25.0834 12.7647 25.0834 16.598C25.0834 18.5296 24.3809 20.3229 23.2247 21.8428C21.9491 23.5194 20.3769 24.9802 18.6072 26.1269C18.2022 26.3919 17.8366 26.4119 17.3921 26.1269C15.6124 24.9802 14.0402 23.5194 12.7755 21.8428C11.6184 20.3229 10.9167 18.5296 10.9167 16.598ZM15.6619 16.8138C15.6619 18.0979 16.7098 19.1079 17.9946 19.1079C19.2803 19.1079 20.3382 18.0979 20.3382 16.8138C20.3382 15.5397 19.2803 14.4805 17.9946 14.4805C16.7098 14.4805 15.6619 15.5397 15.6619 16.8138Z" fill="white"/>
</svg>
