<svg xmlns="http://www.w3.org/2000/svg" viewBox="0 0 24 24" width="24px" height="24px">
  <path d="M22.675 0H1.325C.593 0 0 .593 0 1.326v21.348C0 23.407.593 24 1.325 24h11.494v-9.294H9.69V11.31h3.129V8.587c0-3.1 1.894-4.788 4.66-4.788 1.325 0 2.464.099 2.797.144v3.24l-1.919.001c-1.505 0-1.797.715-1.797 1.764v2.314h3.587l-.467 3.396h-3.12V24h6.116c.73 0 1.325-.593 1.325-1.326V1.326C24 .593 23.407 0 22.675 0z" fill="#1877F2"/>
  <path d="M16.671 24v-9.294h3.12l.467-3.396h-3.587V8.996c0-1.049.292-1.764 1.797-1.764l1.919-.001v-3.24c-.333-.045-1.472-.144-2.797-.144-2.766 0-4.66 1.688-4.66 4.788v2.723H9.69v3.396h3.129V24h3.852z" fill="#FFF"/>
</svg>
