<svg width="24" height="24" viewBox="0 0 24 24" fill="none" xmlns="http://www.w3.org/2000/svg">
<path d="M5.40002 2.10199L18.6 2.10199C19.7 2.10199 20.6 3.00199 20.6 4.10199V6.30199C20.6 7.10199 20.1 8.10199 19.6 8.60199L15.3 12.402C14.7 12.902 14.3 13.902 14.3 14.702V19.002C14.3 19.602 13.9 20.402 13.4 20.702L12 21.602C10.7 22.402 8.90002 21.502 8.90002 19.902V14.602C8.90002 13.902 8.50002 13.002 8.10002 12.502L4.30002 8.50199C3.80002 8.00199 3.40002 7.10199 3.40002 6.50199V4.20199C3.40002 3.00199 4.30002 2.10199 5.40002 2.10199Z" stroke="#707070" stroke-width="1.5" stroke-miterlimit="10" stroke-linecap="round" stroke-linejoin="round"/>
<path opacity="0.4" d="M10.93 2.10199L6 10.002" stroke="#707070" stroke-width="1.5" stroke-miterlimit="10" stroke-linecap="round" stroke-linejoin="round"/>
</svg>
