<svg xmlns="http://www.w3.org/2000/svg" viewBox="0 0 48 48" width="24px" height="24px">
  <path fill="#EA4335" d="M24 9.5c3.3 0 6.3 1.2 8.7 3.5l6.5-6.5C34.2 2.7 29.4.5 24 .5 14.6.5 6.9 5.7 3.4 13.1l7.8 6C13.1 12.1 18.1 9.5 24 9.5z"/>
  <path fill="#4285F4" d="M24 44c5.4 0 10-1.8 13.7-4.9l-7-5.5c-1.8 1.2-4.1 1.8-6.7 1.8-5.1 0-9.4-3.4-10.9-8H6.8v6.3C10.3 40.9 16.8 44 24 44z"/>
  <path fill="#FBBC04" d="M13.1 26.4c-.6-1.8-.6-3.6 0-5.4v-6.3H6.8c-2.4 4.8-2.4 10.5 0 15.3l6.3-3.6z"/>
  <path fill="#34A853" d="M24 19.2c2.9 0 5.5 1.2 7.3 3.1l7.4-7.4C34.3 10.2 29.9 8 24 8 18.1 8 13.1 12.1 11.2 18.1l7.3 7.3c1.5-3.6 5.1-6.2 9.5-6.2z"/>
  <path fill="none" d="M0 0h48v48H0z"/>
</svg>
