<svg width="27" height="41" viewBox="0 0 27 41" fill="none" xmlns="http://www.w3.org/2000/svg">
<path d="M7.26001 11.02V15.99C7.26001 17.81 7.26001 17.81 8.98001 18.97L13.71 21.7C14.42 22.11 15.58 22.11 16.29 21.7L21.02 18.97C22.74 17.81 22.74 17.81 22.74 15.99V11.02C22.74 9.2 22.74 9.2 21.02 8.04L16.29 5.31C15.58 4.9 14.42 4.9 13.71 5.31L8.98001 8.04C7.26001 9.2 7.26001 9.2 7.26001 11.02Z" stroke="#BCBCBC" stroke-width="1.5" stroke-linecap="round" stroke-linejoin="round"/>
<path opacity="0.4" d="M20.5 7.63V5C20.5 3 19.5 2 17.5 2H12.5C10.5 2 9.5 3 9.5 5V7.56" stroke="#BCBCBC" stroke-width="1.5" stroke-linecap="round" stroke-linejoin="round"/>
<path opacity="0.4" d="M15.63 10.99L16.2 11.88C16.29 12.02 16.49 12.16 16.64 12.2L17.66 12.46C18.29 12.62 18.46 13.16 18.05 13.66L17.38 14.47C17.28 14.6 17.2 14.83 17.21 14.99L17.27 16.04C17.31 16.69 16.85 17.02 16.25 16.78L15.27 16.39C15.12 16.33 14.87 16.33 14.72 16.39L13.74 16.78C13.14 17.02 12.68 16.68 12.72 16.04L12.78 14.99C12.79 14.83 12.71 14.59 12.61 14.47L11.94 13.66C11.53 13.16 11.7 12.62 12.33 12.46L13.35 12.2C13.51 12.16 13.71 12.01 13.79 11.88L14.36 10.99C14.72 10.45 15.28 10.45 15.63 10.99Z" stroke="#BCBCBC" stroke-width="1.5" stroke-linecap="round" stroke-linejoin="round"/>
<path opacity="0.5" d="M2.6316 36C2.3116 36 2.03827 35.9733 1.8116 35.92C1.5916 35.8667 1.4116 35.78 1.2716 35.66C1.13827 35.5333 1.0416 35.37 0.981602 35.17C0.921602 34.97 0.891602 34.7267 0.891602 34.44V28.6H1.6316V34.44C1.6316 34.6933 1.7016 34.8733 1.8416 34.98C1.9816 35.0867 2.19827 35.14 2.4916 35.14H2.8416V35.8L2.6416 36H2.6316ZM2.63691 35.34L2.83691 35.14H2.98691C3.42691 35.14 3.74358 35.0867 3.93691 34.98C4.13691 34.8667 4.23691 34.6533 4.23691 34.34C4.23691 34.22 4.22691 34.0667 4.20691 33.88C4.19358 33.6933 4.16025 33.4467 4.10691 33.14L3.96691 32.31L4.66691 32.2L4.78691 33.03C4.83358 33.3567 4.86691 33.6233 4.88691 33.83C4.90691 34.0367 4.91691 34.2067 4.91691 34.34C4.91691 34.9 4.75025 35.3167 4.41691 35.59C4.09025 35.8633 3.61358 36 2.98691 36H2.63691V35.34ZM4.14691 31C4.01358 31 3.90691 30.9633 3.82691 30.89C3.74691 30.81 3.70691 30.6833 3.70691 30.51C3.70691 30.3367 3.74691 30.2133 3.82691 30.14C3.90691 30.06 4.01358 30.02 4.14691 30.02H4.25691C4.39025 30.02 4.49691 30.06 4.57691 30.14C4.65691 30.2133 4.69691 30.3367 4.69691 30.51C4.69691 30.6833 4.65691 30.81 4.57691 30.89C4.49691 30.9633 4.39025 31 4.25691 31H4.14691ZM6.49621 36C6.25621 36 6.05621 35.93 5.89621 35.79C5.74288 35.6433 5.66621 35.43 5.66621 35.15V34.38H6.36621V35.14H7.71621C7.94288 35.14 8.12954 35.1333 8.27621 35.12C8.42288 35.1067 8.53954 35.0867 8.62621 35.06C8.71288 35.0267 8.77288 34.9833 8.80621 34.93C8.83954 34.8767 8.85621 34.8067 8.85621 34.72C8.85621 34.64 8.83954 34.5433 8.80621 34.43C8.77288 34.3167 8.71288 34.1433 8.62621 33.91L7.66621 31.27L8.37621 31.01L9.39621 33.81C9.49621 34.0767 9.58288 34.2967 9.65621 34.47C9.73621 34.6367 9.81621 34.77 9.89621 34.87C9.97621 34.97 10.0562 35.04 10.1362 35.08C10.2229 35.12 10.3195 35.14 10.4262 35.14H10.6762V35.8L10.4762 36C10.2962 36 10.1362 35.9833 9.99621 35.95C9.86288 35.9167 9.74288 35.8667 9.63621 35.8C9.52954 35.7267 9.43288 35.6333 9.34621 35.52C9.25954 35.4067 9.17621 35.2667 9.09621 35.1H9.04621C9.00621 35.4267 8.87954 35.66 8.66621 35.8C8.45288 35.9333 8.13621 36 7.71621 36H6.49621ZM10.4787 35.34L10.6787 35.14H10.8287C11.2687 35.14 11.5854 35.0867 11.7787 34.98C11.9787 34.8667 12.0787 34.6533 12.0787 34.34C12.0787 34.22 12.0687 34.0667 12.0487 33.88C12.0354 33.6933 12.002 33.4467 11.9487 33.14L11.8087 32.31L12.5087 32.2L12.6287 33.03C12.6754 33.3567 12.7087 33.6233 12.7287 33.83C12.7487 34.0367 12.7587 34.2067 12.7587 34.34C12.7587 34.9 12.592 35.3167 12.2587 35.59C11.932 35.8633 11.4554 36 10.8287 36H10.4787V35.34ZM12.6487 38C12.5154 38 12.4087 37.96 12.3287 37.88C12.2487 37.8067 12.2087 37.6833 12.2087 37.51C12.2087 37.3367 12.2487 37.21 12.3287 37.13C12.4087 37.0567 12.5154 37.02 12.6487 37.02H12.7587C12.892 37.02 12.9987 37.0567 13.0787 37.13C13.1587 37.21 13.1987 37.3367 13.1987 37.51C13.1987 37.6833 13.1587 37.8067 13.0787 37.88C12.9987 37.96 12.892 38 12.7587 38H12.6487ZM11.3587 38C11.2254 38 11.1187 37.96 11.0387 37.88C10.9587 37.8067 10.9187 37.6833 10.9187 37.51C10.9187 37.3367 10.9587 37.21 11.0387 37.13C11.1187 37.0567 11.2254 37.02 11.3587 37.02H11.4687C11.602 37.02 11.7087 37.0567 11.7887 37.13C11.8687 37.21 11.9087 37.3367 11.9087 37.51C11.9087 37.6833 11.8687 37.8067 11.7887 37.88C11.7087 37.96 11.602 38 11.4687 38H11.3587ZM14.338 36C14.098 36 13.898 35.93 13.738 35.79C13.5847 35.6433 13.508 35.43 13.508 35.15V34.38H14.208V35.14H15.558C15.7847 35.14 15.9713 35.1333 16.118 35.12C16.2647 35.1067 16.3813 35.0867 16.468 35.06C16.5547 35.0267 16.6147 34.9833 16.648 34.93C16.6813 34.8767 16.698 34.8067 16.698 34.72C16.698 34.64 16.6813 34.5433 16.648 34.43C16.6147 34.3167 16.5547 34.1433 16.468 33.91L15.508 31.27L16.218 31.01L17.238 33.81C17.338 34.0767 17.4247 34.2967 17.498 34.47C17.578 34.6367 17.658 34.77 17.738 34.87C17.818 34.97 17.898 35.04 17.978 35.08C18.0647 35.12 18.1613 35.14 18.268 35.14H18.518V35.8L18.318 36C18.138 36 17.978 35.9833 17.838 35.95C17.7047 35.9167 17.5847 35.8667 17.478 35.8C17.3713 35.7267 17.2747 35.6333 17.188 35.52C17.1013 35.4067 17.018 35.2667 16.938 35.1H16.888C16.848 35.4267 16.7213 35.66 16.508 35.8C16.2947 35.9333 15.978 36 15.558 36H14.338ZM18.3205 35.34L18.5205 35.14H18.8605C19.1538 35.14 19.4238 35.13 19.6705 35.11C19.9238 35.09 20.1805 35.0533 20.4405 35C20.7005 34.94 20.9738 34.8567 21.2605 34.75C21.5538 34.6433 21.8838 34.5033 22.2505 34.33L23.1705 33.89V33.85L21.6905 33.52L19.6205 33.01V33.87H18.9205V33.1C18.9205 32.82 18.9972 32.61 19.1505 32.47C19.3105 32.3233 19.5105 32.25 19.7505 32.25C19.8238 32.25 19.9105 32.26 20.0105 32.28C20.1172 32.2933 20.2805 32.3267 20.5005 32.38L22.9405 33.01C23.3072 33.1033 23.6138 33.17 23.8605 33.21C24.1072 33.2433 24.3205 33.26 24.5005 33.26H24.6605V34.12H23.8805L22.5205 34.94C22.1072 35.1867 21.7405 35.3833 21.4205 35.53C21.1005 35.67 20.8005 35.7767 20.5205 35.85C20.2405 35.9167 19.9672 35.96 19.7005 35.98C19.4405 35.9933 19.1605 36 18.8605 36H18.3205V35.34ZM21.5105 38C21.3772 38 21.2705 37.96 21.1905 37.88C21.1105 37.8067 21.0705 37.6833 21.0705 37.51C21.0705 37.3367 21.1105 37.21 21.1905 37.13C21.2705 37.0567 21.3772 37.02 21.5105 37.02H21.6205C21.7538 37.02 21.8605 37.0567 21.9405 37.13C22.0205 37.21 22.0605 37.3367 22.0605 37.51C22.0605 37.6833 22.0205 37.8067 21.9405 37.88C21.8605 37.96 21.7538 38 21.6205 38H21.5105Z" fill="#BCBCBC"/>
</svg>
