<svg width="45" height="41" viewBox="0 0 45 41" fill="none" xmlns="http://www.w3.org/2000/svg">
<path opacity="0.4" d="M30.83 9.01002L24.28 3.77002C23 2.75002 21 2.74002 19.73 3.76002L13.18 9.01002C12.24 9.76002 11.67 11.26 11.87 12.44L13.13 19.98C13.42 21.67 14.99 23 16.7 23H27.3C28.99 23 30.59 21.64 30.88 19.97L32.14 12.43C32.32 11.26 31.75 9.76002 30.83 9.01002Z" fill="#E4E4E4"/>
<path d="M22 19.75C21.59 19.75 21.25 19.41 21.25 19V16C21.25 15.59 21.59 15.25 22 15.25C22.41 15.25 22.75 15.59 22.75 16V19C22.75 19.41 22.41 19.75 22 19.75Z" fill="#E4E4E4"/>
<path d="M12.6284 37C12.3217 37 12.0617 36.9767 11.8484 36.93C11.6417 36.8767 11.4717 36.7933 11.3384 36.68C11.2117 36.56 11.1184 36.41 11.0584 36.23C10.9984 36.0433 10.9684 35.8133 10.9684 35.54V35.37H10.9184C10.825 35.67 10.665 35.8967 10.4384 36.05C10.2184 36.1967 9.95169 36.27 9.63836 36.27C9.19169 36.27 8.84169 36.15 8.58836 35.91C8.34169 35.67 8.21836 35.33 8.21836 34.89C8.21836 34.7033 8.24836 34.53 8.30836 34.37C8.36836 34.2033 8.46503 34.0433 8.59836 33.89C8.73836 33.73 8.91503 33.5733 9.12836 33.42C9.34169 33.26 9.60169 33.0933 9.90836 32.92L10.9184 32.34V31.84H11.6184V35.44C11.6184 35.7133 11.6884 35.9 11.8284 36C11.9684 36.0933 12.185 36.14 12.4784 36.14H12.8284V36.8L12.6284 37ZM9.78836 35.41C10.195 35.41 10.485 35.3533 10.6584 35.24C10.8317 35.12 10.9184 34.91 10.9184 34.61V33.15L9.90836 33.69C9.55503 33.8833 9.30169 34.0633 9.14836 34.23C8.99503 34.39 8.91836 34.5767 8.91836 34.79C8.91836 35.0033 8.98169 35.16 9.10836 35.26C9.24169 35.36 9.46836 35.41 9.78836 35.41ZM11.2384 31.01C11.105 31.01 10.9984 30.9733 10.9184 30.9C10.8384 30.82 10.7984 30.6933 10.7984 30.52C10.7984 30.3467 10.8384 30.2233 10.9184 30.15C10.9984 30.07 11.105 30.03 11.2384 30.03H11.3484C11.4817 30.03 11.5884 30.07 11.6684 30.15C11.7484 30.2233 11.7884 30.3467 11.7884 30.52C11.7884 30.6933 11.7484 30.82 11.6684 30.9C11.5884 30.9733 11.4817 31.01 11.3484 31.01H11.2384ZM9.94836 31.01C9.81503 31.01 9.70836 30.9733 9.62836 30.9C9.54836 30.82 9.50836 30.6933 9.50836 30.52C9.50836 30.3467 9.54836 30.2233 9.62836 30.15C9.70836 30.07 9.81503 30.03 9.94836 30.03H10.0584C10.1917 30.03 10.2984 30.07 10.3784 30.15C10.4584 30.2233 10.4984 30.3467 10.4984 30.52C10.4984 30.6933 10.4584 30.82 10.3784 30.9C10.2984 30.9733 10.1917 31.01 10.0584 31.01H9.94836ZM12.6242 36.34L12.8242 36.14H13.1742C13.7409 36.14 14.0242 35.8567 14.0242 35.29V33.71H14.7242V35.29C14.7242 35.8567 15.0076 36.14 15.5742 36.14H15.9242V36.8L15.7242 37C14.8042 37 14.2642 36.6733 14.1042 36.02H14.0542C13.9809 36.3867 13.8376 36.6433 13.6242 36.79C13.4109 36.93 13.0776 37 12.6242 37V36.34ZM14.9642 39C14.8309 39 14.7242 38.96 14.6442 38.88C14.5642 38.8067 14.5242 38.6833 14.5242 38.51C14.5242 38.3367 14.5642 38.21 14.6442 38.13C14.7242 38.0567 14.8309 38.02 14.9642 38.02H15.0742C15.2076 38.02 15.3142 38.0567 15.3942 38.13C15.4742 38.21 15.5142 38.3367 15.5142 38.51C15.5142 38.6833 15.4742 38.8067 15.3942 38.88C15.3142 38.96 15.2076 39 15.0742 39H14.9642ZM13.6742 39C13.5409 39 13.4342 38.96 13.3542 38.88C13.2742 38.8067 13.2342 38.6833 13.2342 38.51C13.2342 38.3367 13.2742 38.21 13.3542 38.13C13.4342 38.0567 13.5409 38.02 13.6742 38.02H13.7842C13.9176 38.02 14.0242 38.0567 14.1042 38.13C14.1842 38.21 14.2242 38.3367 14.2242 38.51C14.2242 38.6833 14.1842 38.8067 14.1042 38.88C14.0242 38.96 13.9176 39 13.7842 39H13.6742ZM15.7199 36.34L15.9199 36.14H16.2699C16.3966 36.14 16.5066 36.13 16.5999 36.11C16.6999 36.0833 16.7899 36.04 16.8699 35.98C16.9499 35.92 17.0233 35.84 17.0899 35.74C17.1633 35.64 17.2399 35.51 17.3199 35.35L17.7499 34.51L18.3199 34.8L17.7899 35.8L17.9299 35.89C18.1433 36.03 18.3499 36.1267 18.5499 36.18C18.7566 36.2333 18.9566 36.26 19.1499 36.26C19.4633 36.26 19.6933 36.1867 19.8399 36.04C19.9933 35.8933 20.0699 35.6433 20.0699 35.29V34.51H20.7699V35.29C20.7699 35.65 20.8199 35.9033 20.9199 36.05C21.0199 36.19 21.1866 36.26 21.4199 36.26H21.6499C21.8833 36.26 22.0466 36.19 22.1399 36.05C22.2399 35.9033 22.2899 35.65 22.2899 35.29V34.11H22.9899V35.29C22.9899 35.8567 23.2733 36.14 23.8399 36.14H24.1899V36.8L23.9899 37C23.5499 37 23.2033 36.93 22.9499 36.79C22.6966 36.6433 22.5199 36.42 22.4199 36.12H22.3699C22.3299 36.4933 22.2299 36.7533 22.0699 36.9C21.9099 37.0467 21.6766 37.12 21.3699 37.12C20.6833 37.12 20.2799 36.7867 20.1599 36.12H20.1099C20.0433 36.44 19.9133 36.6867 19.7199 36.86C19.5333 37.0333 19.2833 37.12 18.9699 37.12C18.5766 37.12 18.1366 36.9633 17.6499 36.65L17.3399 36.45C17.1466 36.6633 16.9266 36.81 16.6799 36.89C16.4333 36.9633 16.1133 37 15.7199 37V36.34ZM23.9914 36.34L24.1914 36.14H24.5414C25.1081 36.14 25.3914 35.8567 25.3914 35.29V33.71H26.0914V35.29C26.0914 35.8567 26.3747 36.14 26.9414 36.14H27.2914V36.8L27.0914 37C26.1714 37 25.6314 36.6733 25.4714 36.02H25.4214C25.3481 36.3867 25.2047 36.6433 24.9914 36.79C24.7781 36.93 24.4447 37 23.9914 37V36.34ZM26.3314 39C26.1981 39 26.0914 38.96 26.0114 38.88C25.9314 38.8067 25.8914 38.6833 25.8914 38.51C25.8914 38.3367 25.9314 38.21 26.0114 38.13C26.0914 38.0567 26.1981 38.02 26.3314 38.02H26.4414C26.5747 38.02 26.6814 38.0567 26.7614 38.13C26.8414 38.21 26.8814 38.3367 26.8814 38.51C26.8814 38.6833 26.8414 38.8067 26.7614 38.88C26.6814 38.96 26.5747 39 26.4414 39H26.3314ZM25.0414 39C24.9081 39 24.8014 38.96 24.7214 38.88C24.6414 38.8067 24.6014 38.6833 24.6014 38.51C24.6014 38.3367 24.6414 38.21 24.7214 38.13C24.8014 38.0567 24.9081 38.02 25.0414 38.02H25.1514C25.2847 38.02 25.3914 38.0567 25.4714 38.13C25.5514 38.21 25.5914 38.3367 25.5914 38.51C25.5914 38.6833 25.5514 38.8067 25.4714 38.88C25.3914 38.96 25.2847 39 25.1514 39H25.0414ZM27.0871 36.34L27.2871 36.14H27.4371C27.8771 36.14 28.1938 36.0867 28.3871 35.98C28.5871 35.8667 28.6871 35.6533 28.6871 35.34C28.6871 35.22 28.6771 35.0667 28.6571 34.88C28.6438 34.6933 28.6104 34.4467 28.5571 34.14L28.4171 33.31L29.1171 33.2L29.2371 34.03C29.2838 34.3567 29.3171 34.6233 29.3371 34.83C29.3571 35.0367 29.3671 35.2067 29.3671 35.34C29.3671 35.9 29.2004 36.3167 28.8671 36.59C28.5404 36.8633 28.0638 37 27.4371 37H27.0871V36.34ZM27.6271 31.8H27.9871L27.9971 31.76C27.9438 31.6933 27.9004 31.6167 27.8671 31.53C27.8338 31.4367 27.8171 31.3433 27.8171 31.25C27.8171 30.99 27.9038 30.7733 28.0771 30.6C28.2504 30.4267 28.4704 30.34 28.7371 30.34C28.8904 30.34 29.0471 30.38 29.2071 30.46C29.3671 30.5333 29.4871 30.6333 29.5671 30.76L29.1971 31.21C29.0638 31.0567 28.9104 30.98 28.7371 30.98C28.6171 30.98 28.5171 31.0133 28.4371 31.08C28.3571 31.14 28.3171 31.2167 28.3171 31.31C28.3171 31.45 28.3804 31.56 28.5071 31.64C28.6338 31.72 28.8104 31.76 29.0371 31.76H29.6771V32.4H27.6271V31.8ZM29.2164 38.54H29.5864C29.9531 38.54 30.2531 38.4867 30.4864 38.38C30.7197 38.2733 30.9031 38.13 31.0364 37.95C31.1697 37.7767 31.2631 37.57 31.3164 37.33C31.3697 37.0967 31.3964 36.85 31.3964 36.59C31.3964 36.3967 31.3864 36.1967 31.3664 35.99C31.3464 35.7767 31.3197 35.5733 31.2864 35.38L31.0764 34.25L31.7764 34.11L31.9064 34.87C31.9464 35.1033 31.9764 35.3233 31.9964 35.53C32.0231 35.7367 32.0431 35.94 32.0564 36.14H33.0064V36.8L32.8064 37H32.0464C32.0197 37.3267 31.9564 37.6333 31.8564 37.92C31.7631 38.2133 31.6197 38.47 31.4264 38.69C31.2397 38.91 30.9931 39.0833 30.6864 39.21C30.3864 39.3367 30.0197 39.4 29.5864 39.4H29.2164V38.54ZM32.8098 36.34L33.0098 36.14H33.2998C33.6198 36.14 33.8498 36.0667 33.9898 35.92C34.1364 35.7733 34.2098 35.54 34.2098 35.22V29.6H34.9498V35.22C34.9498 35.8333 34.8164 36.2833 34.5498 36.57C34.2898 36.8567 33.8731 37 33.2998 37H32.8098V36.34ZM36.4453 29.6H37.1853V37H36.4453V29.6Z" fill="#E4E4E4"/>
</svg>
