<svg width="56" height="41" viewBox="0 0 56 41" fill="none" xmlns="http://www.w3.org/2000/svg">
<g clip-path="url(#clip0_351_5210)">
<path opacity="0.34" d="M21 10.5H23C25 10.5 26 9.5 26 7.5V5.5C26 3.5 25 2.5 23 2.5H21C19 2.5 18 3.5 18 5.5V7.5C18 9.5 19 10.5 21 10.5Z" stroke="#BCBCBC" stroke-width="1.5" stroke-miterlimit="10" stroke-linecap="round" stroke-linejoin="round"/>
<path d="M33 10.5H35C37 10.5 38 9.5 38 7.5V5.5C38 3.5 37 2.5 35 2.5H33C31 2.5 30 3.5 30 5.5V7.5C30 9.5 31 10.5 33 10.5Z" stroke="#BCBCBC" stroke-width="1.5" stroke-miterlimit="10" stroke-linecap="round" stroke-linejoin="round"/>
<path opacity="0.34" d="M33 22.5H35C37 22.5 38 21.5 38 19.5V17.5C38 15.5 37 14.5 35 14.5H33C31 14.5 30 15.5 30 17.5V19.5C30 21.5 31 22.5 33 22.5Z" stroke="#BCBCBC" stroke-width="1.5" stroke-miterlimit="10" stroke-linecap="round" stroke-linejoin="round"/>
<path d="M21 22.5H23C25 22.5 26 21.5 26 19.5V17.5C26 15.5 25 14.5 23 14.5H21C19 14.5 18 15.5 18 17.5V19.5C18 21.5 19 22.5 21 22.5Z" stroke="#BCBCBC" stroke-width="1.5" stroke-miterlimit="10" stroke-linecap="round" stroke-linejoin="round"/>
<path opacity="0.5" d="M17.8587 35.62C17.1587 35.62 16.5687 35.5833 16.0887 35.51C15.6154 35.4367 15.232 35.32 14.9387 35.16C14.6454 35 14.432 34.79 14.2987 34.53C14.172 34.2633 14.1087 33.94 14.1087 33.56C14.1087 33.2933 14.142 33.02 14.2087 32.74C14.282 32.46 14.392 32.15 14.5387 31.81L15.1587 32C14.8854 32.5667 14.7487 33.0533 14.7487 33.46C14.7487 33.8667 14.942 34.1667 15.3287 34.36C15.7154 34.5467 16.3254 34.64 17.1587 34.64H18.5587C19.032 34.64 19.422 34.6267 19.7287 34.6C20.0354 34.5733 20.2787 34.5267 20.4587 34.46C20.6387 34.3933 20.762 34.3033 20.8287 34.19C20.902 34.07 20.9387 33.92 20.9387 33.74C20.9387 33.6267 20.932 33.4867 20.9187 33.32C20.9054 33.1467 20.872 32.92 20.8187 32.64L20.6687 31.81L21.3687 31.7L21.4987 32.53C21.5454 32.83 21.5754 33.0767 21.5887 33.27C21.6087 33.4567 21.6187 33.6133 21.6187 33.74C21.6187 34.0867 21.552 34.38 21.4187 34.62C21.292 34.86 21.0787 35.0533 20.7787 35.2C20.4854 35.3467 20.0987 35.4533 19.6187 35.52C19.1454 35.5867 18.5587 35.62 17.8587 35.62ZM18.4187 31.81C18.2854 31.81 18.1787 31.7733 18.0987 31.7C18.0187 31.62 17.9787 31.4933 17.9787 31.32C17.9787 31.1467 18.0187 31.0233 18.0987 30.95C18.1787 30.87 18.2854 30.83 18.4187 30.83H18.5287C18.662 30.83 18.7687 30.87 18.8487 30.95C18.9287 31.0233 18.9687 31.1467 18.9687 31.32C18.9687 31.4933 18.9287 31.62 18.8487 31.7C18.7687 31.7733 18.662 31.81 18.5287 31.81H18.4187ZM17.1287 31.81C16.9954 31.81 16.8887 31.7733 16.8087 31.7C16.7287 31.62 16.6887 31.4933 16.6887 31.32C16.6887 31.1467 16.7287 31.0233 16.8087 30.95C16.8887 30.87 16.9954 30.83 17.1287 30.83H17.2387C17.372 30.83 17.4787 30.87 17.5587 30.95C17.6387 31.0233 17.6787 31.1467 17.6787 31.32C17.6787 31.4933 17.6387 31.62 17.5587 31.7C17.4787 31.7733 17.372 31.81 17.2387 31.81H17.1287ZM24.5574 35.5C24.2374 35.5 23.964 35.4733 23.7374 35.42C23.5174 35.3667 23.3374 35.28 23.1974 35.16C23.064 35.0333 22.9674 34.87 22.9074 34.67C22.8474 34.47 22.8174 34.2267 22.8174 33.94V28.1H23.5574V33.94C23.5574 34.1933 23.6274 34.3733 23.7674 34.48C23.9074 34.5867 24.124 34.64 24.4174 34.64H24.7674V35.3L24.5674 35.5H24.5574ZM24.5627 34.84L24.7627 34.64H25.1027C25.396 34.64 25.666 34.63 25.9127 34.61C26.166 34.59 26.4227 34.5533 26.6827 34.5C26.9427 34.44 27.216 34.3567 27.5027 34.25C27.796 34.1433 28.126 34.0033 28.4927 33.83L29.4127 33.39V33.35L27.9327 33.02L25.8627 32.51V33.37H25.1627V32.6C25.1627 32.32 25.2394 32.11 25.3927 31.97C25.5527 31.8233 25.7527 31.75 25.9927 31.75C26.066 31.75 26.1527 31.76 26.2527 31.78C26.3594 31.7933 26.5227 31.8267 26.7427 31.88L29.1827 32.51C29.5494 32.6033 29.856 32.67 30.1027 32.71C30.3494 32.7433 30.5627 32.76 30.7427 32.76H30.9027V33.62H30.1427V33.74C30.1427 34.0733 30.216 34.3067 30.3627 34.44C30.5094 34.5733 30.736 34.64 31.0427 34.64H31.3927V35.3L31.1927 35.5C30.8994 35.5 30.6494 35.4733 30.4427 35.42C30.236 35.3667 30.066 35.28 29.9327 35.16C29.806 35.0333 29.7094 34.8733 29.6427 34.68C29.5827 34.4867 29.5494 34.25 29.5427 33.97L28.7627 34.44C28.3494 34.6867 27.9827 34.8833 27.6627 35.03C27.3427 35.17 27.0427 35.2767 26.7627 35.35C26.4827 35.4167 26.2094 35.46 25.9427 35.48C25.6827 35.4933 25.4027 35.5 25.1027 35.5H24.5627V34.84ZM27.7527 37.5C27.6194 37.5 27.5127 37.46 27.4327 37.38C27.3527 37.3067 27.3127 37.1833 27.3127 37.01C27.3127 36.8367 27.3527 36.71 27.4327 36.63C27.5127 36.5567 27.6194 36.52 27.7527 36.52H27.8627C27.996 36.52 28.1027 36.5567 28.1827 36.63C28.2627 36.71 28.3027 36.8367 28.3027 37.01C28.3027 37.1833 28.2627 37.3067 28.1827 37.38C28.1027 37.46 27.996 37.5 27.8627 37.5H27.7527ZM31.1936 34.84L31.3936 34.64H31.7436C32.3102 34.64 32.5936 34.3567 32.5936 33.79V32.21H33.2936V33.79C33.2936 34.3567 33.5769 34.64 34.1436 34.64H34.4936V35.3L34.2936 35.5C33.3736 35.5 32.8336 35.1733 32.6736 34.52H32.6236C32.5502 34.8867 32.4069 35.1433 32.1936 35.29C31.9802 35.43 31.6469 35.5 31.1936 35.5V34.84ZM33.5036 31.01C33.3702 31.01 33.2636 30.9733 33.1836 30.9C33.1036 30.82 33.0636 30.6933 33.0636 30.52C33.0636 30.3467 33.1036 30.2233 33.1836 30.15C33.2636 30.07 33.3702 30.03 33.5036 30.03H33.6136C33.7469 30.03 33.8536 30.07 33.9336 30.15C34.0136 30.2233 34.0536 30.3467 34.0536 30.52C34.0536 30.6933 34.0136 30.82 33.9336 30.9C33.8536 30.9733 33.7469 31.01 33.6136 31.01H33.5036ZM32.2136 31.01C32.0802 31.01 31.9736 30.9733 31.8936 30.9C31.8136 30.82 31.7736 30.6933 31.7736 30.52C31.7736 30.3467 31.8136 30.2233 31.8936 30.15C31.9736 30.07 32.0802 30.03 32.2136 30.03H32.3236C32.4569 30.03 32.5636 30.07 32.6436 30.15C32.7236 30.2233 32.7636 30.3467 32.7636 30.52C32.7636 30.6933 32.7236 30.82 32.6436 30.9C32.5636 30.9733 32.4569 31.01 32.3236 31.01H32.2136ZM34.2893 34.84L34.4893 34.64H34.8393C35.4059 34.64 35.6893 34.3567 35.6893 33.79V32.21H36.3893V33.79C36.3893 34.3567 36.6726 34.64 37.2393 34.64H37.5893V35.3L37.3893 35.5C36.4693 35.5 35.9293 35.1733 35.7693 34.52H35.7193C35.6459 34.8867 35.5026 35.1433 35.2893 35.29C35.0759 35.43 34.7426 35.5 34.2893 35.5V34.84ZM35.9793 31.01C35.8459 31.01 35.7393 30.9733 35.6593 30.9C35.5793 30.82 35.5393 30.6933 35.5393 30.52C35.5393 30.3467 35.5793 30.2233 35.6593 30.15C35.7393 30.07 35.8459 30.03 35.9793 30.03H36.0893C36.2226 30.03 36.3293 30.07 36.4093 30.15C36.4893 30.2233 36.5293 30.3467 36.5293 30.52C36.5293 30.6933 36.4893 30.82 36.4093 30.9C36.3293 30.9733 36.2226 31.01 36.0893 31.01H35.9793ZM39.525 35.84C39.3116 35.72 39.115 35.6333 38.935 35.58C38.755 35.5333 38.5383 35.5067 38.285 35.5H37.385V34.84L37.585 34.64H38.335V28.1H39.075V34.73C39.2216 34.7633 39.365 34.81 39.505 34.87C39.645 34.93 39.795 35.0033 39.955 35.09L40.465 35.38L40.035 36.13L39.525 35.84ZM40.835 28.1H41.575V35.5H40.835V28.1Z" fill="#BCBCBC"/>
</g>
<defs>
<clipPath id="clip0_351_5210">
<rect width="56" height="40" fill="white" transform="translate(0 0.5)"/>
</clipPath>
</defs>
</svg>
