<svg width="56" height="41" viewBox="0 0 56 41" fill="none" xmlns="http://www.w3.org/2000/svg">
<path d="M28 12.5C29.3261 12.5 30.5979 11.9732 31.5355 11.0355C32.4732 10.0979 33 8.82608 33 7.5C33 6.17392 32.4732 4.90215 31.5355 3.96447C30.5979 3.02678 29.3261 2.5 28 2.5C26.6739 2.5 25.4021 3.02678 24.4645 3.96447C23.5268 4.90215 23 6.17392 23 7.5C23 8.82608 23.5268 10.0979 24.4645 11.0355C25.4021 11.9732 26.6739 12.5 28 12.5Z" stroke="#BCBCBC" stroke-width="1.5" stroke-linecap="round" stroke-linejoin="round"/>
<path opacity="0.4" d="M36.59 22.5C36.59 18.63 32.74 15.5 28 15.5C23.26 15.5 19.41 18.63 19.41 22.5" stroke="#BCBCBC" stroke-width="1.5" stroke-linecap="round" stroke-linejoin="round"/>
<path opacity="0.5" d="M22.1189 34.42C22.1189 33.91 22.0889 33.27 22.0189 32.62H21.2689C21.3589 33.38 21.4189 33.99 21.4189 34.42C21.4189 35.47 20.6289 35.79 18.2589 35.79C16.2489 35.79 15.3889 35.3 15.3889 34.14C15.3889 33.83 15.4689 33.38 15.5589 32.97H14.8589C14.7489 33.34 14.6889 33.84 14.6889 34.29C14.6889 35.9 15.7689 36.59 18.2589 36.59C20.9489 36.59 22.1189 35.94 22.1189 34.42ZM18.9189 37.81C18.9189 37.52 18.6989 37.3 18.4089 37.3C18.1189 37.3 17.8989 37.52 17.8989 37.81C17.8989 38.1 18.1189 38.32 18.4089 38.32C18.6989 38.32 18.9189 38.1 18.9189 37.81ZM25.2817 36.3V35.7C24.4317 35.7 24.1217 35.37 24.1217 34.45V28.77H23.4217V34.45C23.4217 35.85 23.9217 36.5 25.0317 36.5H25.0817L25.2817 36.3ZM33.3503 36.3V35.7C32.5503 35.7 32.1903 35.34 32.1903 34.55V33.67H31.4903V34.55C31.4903 35.32 31.1703 35.79 30.6003 35.79C30.1103 35.79 29.7003 35.4 29.7003 34.55L29.6903 34.02H28.9903L29.0003 34.55C29.0003 35.4 28.6203 35.79 28.1003 35.79C27.4203 35.79 27.1103 35.39 27.1103 34.55L27.1003 34.02H26.4003L26.4103 34.55C26.4103 35.34 25.9903 35.7 25.2803 35.7L25.0803 35.9V36.5C25.9603 36.5 26.4603 36.2 26.5903 35.55C26.7403 36.2 27.2403 36.59 28.0003 36.59C28.6503 36.59 29.0703 36.25 29.1803 35.57C29.3403 36.22 29.8503 36.59 30.4903 36.59C31.1203 36.59 31.5503 36.26 31.6703 35.55C31.8403 36.15 32.3503 36.5 33.1503 36.5L33.3503 36.3ZM33.9267 36.5C34.9567 36.5 35.5067 36.34 36.5767 35.7L37.2067 35.33C37.7167 35.02 38.0867 34.82 38.3367 34.72C38.5867 34.62 38.8167 34.57 39.0367 34.57H39.4267V33.82H39.0867C38.6067 33.82 38.1667 33.76 37.4067 33.59L36.4567 33.38C36.8267 33.11 36.9667 32.62 36.9667 31.82V28.77H36.2667V31.62C36.2667 32.24 36.1667 32.65 35.9667 32.86C35.7667 33.07 35.3667 33.17 34.7667 33.17H33.8567V33.97H34.5667C35.3767 33.97 35.8167 34 36.1867 34.08L37.2567 34.31C37.4067 34.34 37.5667 34.38 37.6967 34.39C37.4867 34.48 37.2367 34.59 36.9567 34.74L36.2767 35.1C35.3667 35.58 34.8867 35.7 33.9267 35.7H33.3467L33.1467 35.9V36.5H33.9267ZM41.1064 28.77H40.4064V36.5H41.1064V28.77Z" fill="#BCBCBC"/>
</svg>
