<svg width="56" height="41" viewBox="0 0 56 41" fill="none" xmlns="http://www.w3.org/2000/svg">
<path d="M18 2.5H19.74C20.82 2.5 21.67 3.43 21.58 4.5L20.75 14.46C20.7176 14.8459 20.7657 15.2342 20.8912 15.6005C21.0168 15.9669 21.217 16.3031 21.4793 16.5879C21.7416 16.8728 22.0602 17.1001 22.415 17.2553C22.7697 17.4106 23.1528 17.4905 23.54 17.49H34.19C35.63 17.49 36.89 16.31 37 14.88L37.54 7.38C37.66 5.72 36.4 4.37 34.73 4.37H21.82" stroke="#BCBCBC" stroke-width="1.5" stroke-miterlimit="10" stroke-linecap="round" stroke-linejoin="round"/>
<path opacity="0.4" d="M25 8.5H37M32.25 22.5C32.5815 22.5 32.8995 22.3683 33.1339 22.1339C33.3683 21.8995 33.5 21.5815 33.5 21.25C33.5 20.9185 33.3683 20.6005 33.1339 20.3661C32.8995 20.1317 32.5815 20 32.25 20C31.9185 20 31.6005 20.1317 31.3661 20.3661C31.1317 20.6005 31 20.9185 31 21.25C31 21.5815 31.1317 21.8995 31.3661 22.1339C31.6005 22.3683 31.9185 22.5 32.25 22.5ZM24.25 22.5C24.5815 22.5 24.8995 22.3683 25.1339 22.1339C25.3683 21.8995 25.5 21.5815 25.5 21.25C25.5 20.9185 25.3683 20.6005 25.1339 20.3661C24.8995 20.1317 24.5815 20 24.25 20C23.9185 20 23.6005 20.1317 23.3661 20.3661C23.1317 20.6005 23 20.9185 23 21.25C23 21.5815 23.1317 21.8995 23.3661 22.1339C23.6005 22.3683 23.9185 22.5 24.25 22.5Z" stroke="#BCBCBC" stroke-width="1.5" stroke-miterlimit="10" stroke-linecap="round" stroke-linejoin="round"/>
<path opacity="0.5" d="M22.0131 35.5C21.7065 35.5 21.4465 35.4767 21.2331 35.43C21.0265 35.3767 20.8565 35.2933 20.7231 35.18C20.5965 35.06 20.5031 34.91 20.4431 34.73C20.3831 34.5433 20.3531 34.3133 20.3531 34.04V33.87H20.3031C20.2098 34.17 20.0498 34.3967 19.8231 34.55C19.6031 34.6967 19.3365 34.77 19.0231 34.77C18.5765 34.77 18.2265 34.65 17.9731 34.41C17.7265 34.17 17.6031 33.83 17.6031 33.39C17.6031 33.2033 17.6331 33.03 17.6931 32.87C17.7531 32.7033 17.8498 32.5433 17.9831 32.39C18.1231 32.23 18.2998 32.0733 18.5131 31.92C18.7265 31.76 18.9865 31.5933 19.2931 31.42L20.3031 30.84V30.34H21.0031V33.94C21.0031 34.2133 21.0731 34.4 21.2131 34.5C21.3531 34.5933 21.5698 34.64 21.8631 34.64H22.2131V35.3L22.0131 35.5ZM19.1731 33.91C19.5798 33.91 19.8698 33.8533 20.0431 33.74C20.2165 33.62 20.3031 33.41 20.3031 33.11V31.65L19.2931 32.19C18.9398 32.3833 18.6865 32.5633 18.5331 32.73C18.3798 32.89 18.3031 33.0767 18.3031 33.29C18.3031 33.5033 18.3665 33.66 18.4931 33.76C18.6265 33.86 18.8531 33.91 19.1731 33.91ZM20.6231 29.51C20.4898 29.51 20.3831 29.4733 20.3031 29.4C20.2231 29.32 20.1831 29.1933 20.1831 29.02C20.1831 28.8467 20.2231 28.7233 20.3031 28.65C20.3831 28.57 20.4898 28.53 20.6231 28.53H20.7331C20.8665 28.53 20.9731 28.57 21.0531 28.65C21.1331 28.7233 21.1731 28.8467 21.1731 29.02C21.1731 29.1933 21.1331 29.32 21.0531 29.4C20.9731 29.4733 20.8665 29.51 20.7331 29.51H20.6231ZM19.3331 29.51C19.1998 29.51 19.0931 29.4733 19.0131 29.4C18.9331 29.32 18.8931 29.1933 18.8931 29.02C18.8931 28.8467 18.9331 28.7233 19.0131 28.65C19.0931 28.57 19.1998 28.53 19.3331 28.53H19.4431C19.5765 28.53 19.6831 28.57 19.7631 28.65C19.8431 28.7233 19.8831 28.8467 19.8831 29.02C19.8831 29.1933 19.8431 29.32 19.7631 29.4C19.6831 29.4733 19.5765 29.51 19.4431 29.51H19.3331ZM22.009 34.84L22.209 34.64H22.559C23.1257 34.64 23.409 34.3567 23.409 33.79V28.1H24.149V33.79C24.149 34.3567 24.4323 34.64 24.999 34.64H25.349V35.3L25.149 35.5C24.2023 35.5 23.649 35.1733 23.489 34.52H23.439C23.3657 34.8867 23.2223 35.1433 23.009 35.29C22.7957 35.43 22.4623 35.5 22.009 35.5V34.84ZM25.1535 34.84L25.3535 34.64H25.7035C25.8302 34.64 25.9402 34.63 26.0335 34.61C26.1335 34.5833 26.2235 34.54 26.3035 34.48C26.3835 34.42 26.4568 34.34 26.5235 34.24C26.5968 34.14 26.6735 34.01 26.7535 33.85L27.1835 33.01L27.7535 33.3L27.2235 34.3L27.3635 34.39C27.5768 34.53 27.7835 34.6267 27.9835 34.68C28.1902 34.7333 28.3902 34.76 28.5835 34.76C28.8968 34.76 29.1268 34.6867 29.2735 34.54C29.4268 34.3933 29.5035 34.1433 29.5035 33.79V33.01H30.2035V33.79C30.2035 34.15 30.2535 34.4033 30.3535 34.55C30.4535 34.69 30.6202 34.76 30.8535 34.76H31.0835C31.3168 34.76 31.4802 34.69 31.5735 34.55C31.6735 34.4033 31.7235 34.15 31.7235 33.79V32.61H32.4235V33.79C32.4235 34.3567 32.7068 34.64 33.2735 34.64H33.6235V35.3L33.4235 35.5C32.9835 35.5 32.6368 35.43 32.3835 35.29C32.1302 35.1433 31.9535 34.92 31.8535 34.62H31.8035C31.7635 34.9933 31.6635 35.2533 31.5035 35.4C31.3435 35.5467 31.1102 35.62 30.8035 35.62C30.1168 35.62 29.7135 35.2867 29.5935 34.62H29.5435C29.4768 34.94 29.3468 35.1867 29.1535 35.36C28.9668 35.5333 28.7168 35.62 28.4035 35.62C28.0102 35.62 27.5702 35.4633 27.0835 35.15L26.7735 34.95C26.5802 35.1633 26.3602 35.31 26.1135 35.39C25.8668 35.4633 25.5468 35.5 25.1535 35.5V34.84ZM33.425 34.84L33.625 34.64H33.915C34.235 34.64 34.465 34.5667 34.605 34.42C34.7517 34.2733 34.825 34.04 34.825 33.72V28.1H35.565V33.72C35.565 34.3333 35.4317 34.7833 35.165 35.07C34.905 35.3567 34.4883 35.5 33.915 35.5H33.425V34.84ZM37.0605 28.1H37.8005V35.5H37.0605V28.1Z" fill="#BCBCBC"/>
</svg>
