<svg width="16" height="16" viewBox="0 0 16 16" fill="none" xmlns="http://www.w3.org/2000/svg">
<path d="M4.50668 14.6666H11.4933C13.3333 14.6666 14.0667 13.54 14.1533 12.1666L14.5 6.65998C14.5933 5.21998 13.4467 3.99998 12 3.99998C11.5933 3.99998 11.22 3.76665 11.0333 3.40665L10.5533 2.43998C10.2467 1.83331 9.44668 1.33331 8.76668 1.33331H7.24001C6.55334 1.33331 5.75334 1.83331 5.44668 2.43998L4.96668 3.40665C4.78001 3.76665 4.40668 3.99998 4.00001 3.99998C2.55334 3.99998 1.40668 5.21998 1.50001 6.65998L1.84668 12.1666C1.92668 13.54 2.66668 14.6666 4.50668 14.6666Z" stroke="black" stroke-width="1.5" stroke-linecap="round" stroke-linejoin="round"/>
<path opacity="0.4" d="M7 5.33331H9" stroke="black" stroke-width="1.5" stroke-linecap="round" stroke-linejoin="round"/>
<path opacity="0.4" d="M7.99998 12C9.19331 12 10.1666 11.0267 10.1666 9.83335C10.1666 8.64002 9.19331 7.66669 7.99998 7.66669C6.80665 7.66669 5.83331 8.64002 5.83331 9.83335C5.83331 11.0267 6.80665 12 7.99998 12Z" stroke="black" stroke-width="1.5" stroke-linecap="round" stroke-linejoin="round"/>
</svg>
